<?xml version="1.0" encoding="UTF-8"?> <svg xmlns="http://www.w3.org/2000/svg" id="Layer_1" data-name="Layer 1" viewBox="0 0 70.64 70.64"><title>tutorials-icon-2</title><path d="M64.92,17V12.89l-.59-.23A33.89,33.89,0,0,0,52.9,10.71a26.24,26.24,0,0,0-17.61,6.23,26.26,26.26,0,0,0-17.62-6.23A33.87,33.87,0,0,0,6.25,12.66l-.59.23v3.79c-1.95.37-3.16,1-3.16,2.08V57.83H31.28a6.43,6.43,0,0,0,8.16,0H67.5V18.76c0-.87-1-1.43-2.58-1.78Z" transform="translate(0.32 0.32)" style="fill:#059ad7;stroke:#575a5b;stroke-miterlimit:10;stroke-width:0.640991322729486px"></path><path d="M63.06,52.14" transform="translate(0.32 0.32)" style="fill:#4e4d4c"></path><path d="M35.32,56c-2.4-1-11-4.19-19.2-4.19A34.28,34.28,0,0,0,5.66,53.64V12.89a45.12,45.12,0,0,1,12-2.18c6.34,0,12.06,1.59,16.5,5.32l-.29,24.84,1.44-1.35Z" transform="translate(0.32 0.32)" style="fill:#fff;stroke:#575a5b;stroke-linejoin:round;stroke-width:0.640991322729486px"></path><path d="M64.92,53.52A35.08,35.08,0,0,0,54,51.72c-8.24,0-16.36,3.26-18.71,4.3V39.52l1.37,1.35-.32-24.63c4.44-3.73,10.2-5.53,16.53-5.53a45.13,45.13,0,0,1,12,2.18Z" transform="translate(0.32 0.32)" style="fill:#fff;stroke:#575a5b;stroke-linecap:square;stroke-linejoin:round;stroke-width:0.640991322729486px"></path><rect x="0.32" y="0.32" width="70" height="70" style="fill:none;stroke:#fff;stroke-miterlimit:10;stroke-width:0.640991322729486px"></rect></svg> 