<?xml version="1.0" encoding="UTF-8"?> <svg xmlns="http://www.w3.org/2000/svg" id="Layer_1" data-name="Layer 1" viewBox="0 0 70.56 71"><title>videos-icon</title><path d="M54.15,34.14l11.46-6.82V54.61L54.15,47.79Zm-3.82,0V47.79c0,3.77-3.43,6.82-7.64,6.82H12.12c-4.22,0-7.64-3-7.64-6.82V34.14c0-3.77,3.42-6.82,7.64-6.82h19.1A3.63,3.63,0,0,1,35,23.91V20.49H14a1.81,1.81,0,0,1-1.91-1.7A1.82,1.82,0,0,1,14,17.08H37a1.82,1.82,0,0,1,1.91,1.71v5.12a3.63,3.63,0,0,1,3.83,3.41C46.9,27.32,50.33,30.37,50.33,34.14Zm-7.64,1.71a1.82,1.82,0,0,0-1.92-1.71H33.13a1.72,1.72,0,1,0,0,3.41h7.64A1.82,1.82,0,0,0,42.69,35.85Z" transform="translate(0.5 0.5)" style="fill:#fff;stroke:#575a5b;stroke-miterlimit:10;stroke-width:0.706222148419005px"></path><polygon points="15.67 36.35 15.67 49.5 26.63 42.92 15.67 36.35" style="fill:#0f99d6"></polygon><rect x="0.5" y="0.5" width="69.57" height="70" style="fill:none;stroke:#fff;stroke-miterlimit:10;stroke-width:0.996908864462666px"></rect></svg> 