<?xml version="1.0" encoding="UTF-8"?> <svg xmlns="http://www.w3.org/2000/svg" id="Layer_1" data-name="Layer 1" viewBox="0 0 70.56 71"><title>faq</title><rect x="0.5" y="0.5" width="69.57" height="70" style="fill:none;stroke:#fff;stroke-miterlimit:10;stroke-width:0.996908864462666px"></rect><path d="M10.51,33.2H8.69A3.26,3.26,0,0,1,5.49,30V13.45a3.2,3.2,0,0,1,3.2-3.2h25a3.2,3.2,0,0,1,3.19,3.2h0V30a3.21,3.21,0,0,1-3.19,3.21H18.41l-7.9,9Z" transform="translate(0.5 0.5)" style="fill:#0f99d6"></path><path d="M57.61,60.86,47.39,49.22H27.72a4.13,4.13,0,0,1-4.13-4.13V23.76a4.15,4.15,0,0,1,4.13-4.13H60a4.15,4.15,0,0,1,4.13,4.13V45.09A4.14,4.14,0,0,1,60,49.22H57.61Z" transform="translate(0.5 0.5)" style="fill:#fff;stroke:#575a5b;stroke-miterlimit:10;stroke-width:0.650821886223881px"></path><path d="M43.22,37.34l0-.66a5.84,5.84,0,0,1,1.58-4.41c1.15-1.35,1.79-2.35,1.79-3.5s-.82-2.17-2.43-2.19a4.51,4.51,0,0,0-2.58.79l-.61-1.61a6.74,6.74,0,0,1,3.65-1c2.94,0,4.26,1.81,4.26,3.75,0,1.74-1,3-2.19,4.44a5.09,5.09,0,0,0-1.46,3.75l0,.66Zm-.56,3.58a1.51,1.51,0,0,1,1.53-1.61,1.6,1.6,0,1,1-1.53,1.61Z" transform="translate(0.5 0.5)" style="fill:#0f99d6"></path></svg> 