<?xml version="1.0" encoding="UTF-8"?> <svg xmlns="http://www.w3.org/2000/svg" id="Layer_1" data-name="Layer 1" viewBox="0 0 60.99 58.79"><defs><style>.cls-1{fill:#fff;stroke:#4e4d4d;stroke-miterlimit:10;stroke-width:0.52px;}.cls-2{fill:#009bdd;}</style></defs><title>reviews4stars</title><path class="cls-1" d="M62.24,10.3,10.51,1.58c-2.4,0-4.37,2.94-4.37,6.54V41.37c0,3.6,2,6.55,4.37,6.55L39,46.11C43.36,53,49.55,57.93,56.32,59.86c-2.75-1.1-4.84-4.06-6.07-7.36a35.65,35.65,0,0,1-1.67-7l13.66-.86c2.4,0,4.37-2.95,4.37-6.55V16.84C66.61,13.24,64.64,10.3,62.24,10.3Z" transform="translate(-5.88 -1.32)"></path><polygon class="cls-2" points="46.46 23.23 43.5 22.77 42.98 21.66 42.19 20.04 40.88 22.77 37.92 23.23 40.05 25.35 39.55 28.39 42.19 26.96 42.98 27.38 44.84 28.39 44.33 25.35 46.46 23.23"></polygon><polygon class="cls-2" points="14.54 23.23 11.58 22.77 11.06 21.66 10.27 20.04 8.96 22.77 6 23.23 8.13 25.35 7.63 28.39 10.27 26.96 11.06 27.38 12.91 28.39 12.41 25.35 14.54 23.23"></polygon><polygon class="cls-2" points="24.24 23.23 21.29 22.77 20.76 21.66 19.97 20.04 18.66 22.77 15.71 23.23 17.83 25.35 17.33 28.39 19.97 26.96 20.76 27.38 22.62 28.39 22.11 25.35 24.24 23.23"></polygon><polygon class="cls-2" points="56.58 23.23 53.63 22.77 53.11 21.66 52.31 20.04 51 22.77 48.05 23.23 50.17 25.35 49.67 28.39 52.31 26.96 53.11 27.38 54.96 28.39 54.46 25.35 56.58 23.23"></polygon><polygon class="cls-2" points="35.77 23.23 32.82 22.77 32.3 21.66 31.5 20.04 30.19 22.77 27.24 23.23 29.36 25.35 28.86 28.39 31.5 26.96 32.3 27.38 34.15 28.39 33.65 25.35 35.77 23.23"></polygon></svg> 